<?xml version="1.0" encoding="utf-8"?>
<!-- Generator: Adobe Illustrator 27.5.0, SVG Export Plug-In . SVG Version: 6.00 Build 0)  -->
<svg version="1.1" baseProfile="tiny" xmlns="http://www.w3.org/2000/svg" xmlns:xlink="http://www.w3.org/1999/xlink" x="0px"
	 y="0px" viewBox="0 0 950 222.5" overflow="visible" xml:space="preserve">
<g id="Layer_1">
</g>
<g id="Layer_2">
</g>
<g id="Layer_3">
	<g>
		<g>
			<g>
				<path d="M325.57,109.03h-31.75v85.55h23.96v-32.23h7.31c16.29,0,28.16-7.67,28.16-26.72
					C353.25,116.82,343.9,109.03,325.57,109.03z M328.88,145.1h-11.41v-18.81h11.41V145.1z"/>
				<rect x="-0.1" y="109.03" width="23.96" height="85.55"/>
				<path d="M118.52,214.11h8.63c0,0-0.37,3.71-6.23,3.71v5.51c11.41,0,16.06-3.62,16.06-11.62v-11.14h-18.45V214.11z"/>
				<rect x="163.93" y="109.03" width="23.96" height="85.55"/>
				<polygon points="384.4,160.31 410.16,160.31 410.16,141.62 384.4,141.62 384.4,128.44 411.96,128.44 411.96,109.03 
					360.44,109.03 360.44,194.58 413.04,194.58 413.04,175.17 384.4,175.17 				"/>
				<polygon points="459.17,109.03 459.17,161.27 458.93,161.27 446.71,109.03 420.71,109.03 420.71,194.58 442.52,194.58 
					442.52,141.86 442.76,141.86 456.06,194.58 481.7,194.58 481.7,109.03 				"/>
				<path d="M122.23,129.64v-6.47h11.41v10.42h22.5c0-14.26-4.07-26.24-28.28-26.24c-9.47,0-15.34,2.4-19.53,5.27
					c-5.63,3.95-9.11,10.31-9.11,22.29c0,12.7,4.19,17.49,17.25,23.84c4.31,2.28,8.63,3.83,11.86,5.63c2.99,1.8,5.3,3.12,5.3,8.51
					v7.51h-11.41v-11.47H98.39v2.28c0,18.81,10.06,25.04,28.4,25.04c22.17,0,31.39-8.03,31.39-27.8
					C158.18,137.79,122.23,146.77,122.23,129.64z"/>
				<path d="M255.83,107.36c-30.79,0-30.79,15.11-30.79,38.31v12.28c0,24.04,0,38.31,30.79,38.31c30.79,0,30.79-14.27,30.79-38.31
					v-12.28C286.63,122.46,286.63,107.36,255.83,107.36z M261.54,180.41h-11.41v-57.24h11.41V180.41z"/>
				<path d="M46.75,109.03L26.5,194.58h29.34v-12.92h11.41v12.92h29.7l-20.13-85.55H46.75z M67.25,162.83H55.84v-36.54h11.41V162.83
					z"/>
			</g>
			<g>
				<rect x="436.12" y="0.34" width="23.96" height="85.55"/>
				<g>
					<polygon points="524.65,0.34 524.65,22.17 507.2,22.17 507.2,85.89 483.24,85.89 483.24,22.17 465.78,22.17 465.78,0.34 					
						"/>
				</g>
				<rect x="139.19" y="0.34" width="23.96" height="85.55"/>
				<polygon points="331.8,51.62 357.56,51.62 357.56,32.93 331.8,32.93 331.8,19.75 359.35,19.75 359.35,0.34 307.83,0.34 
					307.83,85.89 360.43,85.89 360.43,66.48 331.8,66.48 				"/>
				<polygon points="109.51,0.34 132.03,0.34 132.03,85.89 106.39,85.89 90.36,33.17 90.12,33.17 90.12,85.89 68.31,85.89 
					68.31,0.34 94.31,0.34 109.27,52.58 109.51,52.58 				"/>
				<path d="M424.8,11.48c-3.83-7.07-10.78-11.14-21.45-11.14H366.1v85.55h37.6c24.92,0,25.64-24.08,25.64-42.77
					C429.35,22.87,428.63,18.07,424.8,11.48z M404.44,68.6h-14.15V17.59h14.15V68.6z"/>
				<path d="M208.46,50.66v21.05h-14.15V14.48h14.15v17.51h24.17c-0.15-20.36-3.55-33.33-31.25-33.33
					c-29.89,0-31.26,15.11-31.26,38.31v12.28c0,24.04,1.37,38.31,31.26,38.31c29.3,0,31.25-13.72,31.26-36.9H208.46z"/>
				<path d="M287.63,43.59v-0.24c8.27-1.32,14.26-6.95,14.26-20.61c0-14.38-6.95-22.41-23.6-22.41h-38.68v85.55h23.96V52.22h14.15
					v33.67h23.58V65.04c0-5.15,0-10.78-2.28-14.62C296.74,46.23,292.43,43.95,287.63,43.59z M277.72,36.41h-14.15V17.59h14.15V36.41
					z"/>
				<path d="M61.48,0.34v48.91c0,24.06,0,38.31-30.78,38.31c-30.8,0-30.8-14.25-30.8-38.31V0.34H25v71.38h11.4V0.34H61.48z"/>
			</g>
		</g>
		<g id="WTA_250">
			<g id="_x32_50_00000001624537362035768080000016833948330408421299_">
				<path d="M862.14,165.62c-11.34,0-18.3-8.99-18.3-23.54c0-14.54,6.96-23.53,18.3-23.53c11.34,0,18.3,8.99,18.3,23.53
					C880.44,156.63,873.48,165.62,862.14,165.62 M862.14,170.47c14.31,0,23.69-11.34,23.69-28.38c0-17.05-9.38-28.38-23.69-28.38
					c-14.31,0-23.69,11.34-23.69,28.38C838.45,159.13,847.83,170.47,862.14,170.47 M814.17,133.17c-4.85,0-9.62,1.64-13.06,4.3
					l2.03-18.14h23.93c1.49,0,2.5-0.86,2.5-2.35c0-1.41-0.94-2.27-2.5-2.27h-26.19c-1.33,0-2.35,0.86-2.5,2.27l-2.35,22.05
					c-0.08,0.62-0.08,1.02-0.08,1.56c0,1.72,0.94,2.66,2.42,2.66c1.09,0,1.88-0.39,3.21-1.25c4.22-3.05,7.74-4.61,12.28-4.61
					c8.52,0,14.39,5.63,14.39,13.76c0,8.99-5.71,14.62-14.62,14.62c-7.11,0-12.12-3.21-15.09-9.7c-0.55-1.09-1.33-1.64-2.42-1.64
					c-1.49,0-2.5,1.01-2.5,2.42c0,0.62,0.08,1.17,0.47,1.95c3.05,7.04,10.63,11.57,19.55,11.57c11.96,0,19.78-7.66,19.78-19.23
					C833.4,140.68,825.43,133.17,814.17,133.17 M752.44,169.45h34.87c1.8,0,2.89-1.02,2.89-2.66c0-1.56-1.02-2.58-2.89-2.58h-32.29
					c0.08-7.9,3.52-12.04,14.15-15.8c14.86-5.24,19.94-9.7,19.94-18.76c0-9.15-7.97-15.95-18.69-15.95
					c-10.01,0-17.59,5.55-20.25,14.47c-0.23,0.94-0.39,1.72-0.39,2.74c0,1.64,1.02,2.74,2.58,2.74c1.41,0,2.19-0.7,2.5-2.19
					c1.72-8.37,7.35-12.9,15.48-12.98c7.82-0.08,13.45,4.61,13.45,11.18c0,6.88-3.68,9.7-15.95,14
					c-13.37,4.69-18.38,10.95-18.38,22.52C749.46,168.28,750.56,169.45,752.44,169.45"/>
			</g>
			<g id="WTA_00000121242202166756253810000013380896796076391828_">
				<path d="M922.62,81.06c-3.96-0.06-7,2.84-7.04,6.72c-0.04,3.87,2.99,7,6.82,7.02c3.78,0.02,7.01-3.19,6.96-6.94
					C929.32,84.13,926.33,81.11,922.62,81.06z"/>
				<path d="M949.14,84.06c-6.72-13.82-13.4-27.66-20.07-41.5c-1.34-2.78-3.45-4.49-6.56-4.5c-3.21-0.01-5.33,1.77-6.71,4.65
					c-6.59,13.7-13.23,27.38-19.84,41.07c-0.36,0.74-0.69,1.51-0.9,2.3c-0.84,3.19,0.64,6.44,3.57,7.92
					c2.93,1.49,6.44,0.79,8.51-1.8c0.61-0.76,1.07-1.67,1.5-2.55c4.19-8.62,8.36-17.25,12.54-25.87c0.35-0.72,0.73-1.43,1.31-2.55
					c0.47,0.92,0.7,1.35,0.91,1.79c3.46,7.14,6.91,14.28,10.37,21.42c1.12,2.3,2.17,4.65,3.42,6.88c1.43,2.56,3.82,3.67,6.67,3.4
					c2.87-0.27,4.93-1.89,5.87-4.65C950.43,88.01,950.1,86.02,949.14,84.06z"/>
				<path d="M904.99,45.5c0.25-2.83-1.53-5.81-4.32-6.88c-1.05-0.4-2.25-0.57-3.38-0.57c-11.99-0.04-37.21,0-37.21,0
					c-3.33,0.39-5.91,3.14-6.1,6.48c-0.17,2.86,1.25,5.4,3.65,6.6c0.92,0.46,1.96,0.66,2.99,0.66h9.58c0,0-16.07,32.74-16.42,33.74
					c-0.98,2.79-0.13,5.75,2.11,7.61c2.17,1.81,5.15,2.12,7.67,0.83c1.71-0.88,2.7-2.35,3.51-4.03c3.44-7.15,6.9-14.28,10.36-21.42
					c2.45-5.06,7.91-16.73,7.91-16.73s12.06,0.13,13.92,0C902.49,51.56,904.7,48.71,904.99,45.5z"/>
				<path d="M838.04,38.27c-2.53,0.64-4.08,2.3-5.17,4.6c-4.25,8.88-8.55,17.72-12.85,26.57c-0.31,0.63-0.69,1.23-1.18,2.08
					c-0.55-1.06-0.97-1.85-1.36-2.65c-4.15-8.56-8.29-17.12-12.43-25.67c-0.32-0.67-0.63-1.36-1.04-1.97
					c-2.81-4.24-8.9-4.24-11.69,0.02c-0.41,0.62-0.72,1.3-1.04,1.97c-4.15,8.56-8.28,17.12-12.43,25.67
					c-0.38,0.78-0.82,1.52-1.42,2.62c-0.6-1.15-1-1.87-1.35-2.6c-4.11-8.48-8.22-16.97-12.33-25.45c-0.36-0.74-0.7-1.5-1.15-2.19
					c-1.68-2.55-4.77-3.73-7.56-2.94c-4.36,1.24-6.51,5.61-4.5,9.82c6.79,14.26,13.7,28.46,20.6,42.66c1.27,2.6,3.47,3.98,6.39,3.95
					c2.92-0.02,5.01-1.47,6.32-4.06c0.19-0.37,12.99-26.6,14.37-29.47c1.45,2.96,10.72,22.13,14.12,29.12
					c1.53,3.14,4.03,4.69,7.09,4.41c3.02-0.27,4.91-2.03,6.19-4.7c6.56-13.64,13.16-27.25,19.73-40.88
					c0.43-0.89,0.83-1.82,1.05-2.77C847.52,41.61,842.82,37.05,838.04,38.27z"/>
			</g>
			<g id="Mark_00000174603774471526621840000018115634677894625711_">
				<path d="M730.67,99.72c-1.02-15.4-3.56-24.9-10.22-37.66c-6.29-12.08-15.58-22.86-26.88-31.16c-0.04-0.02-0.26-0.21-0.41-0.35
					c0.44-2.8,1.43-7.43,3.47-10.5c3.09-4.64,8.25-10.14,8.59-12.71c0.34-2.58-1.21-4.67-1.55-6.19c-0.57-2.58-2.28-2.89-3.38-2.12
					c-1.37,0.97-2.93,3.01-3.66,3.89c-1.26,1.52-2.4,2.78-3.05,3.47c0.02-0.18,0.06-0.74-0.06-2c-0.26-2.56-1.98-2.44-2.58-1.66
					c-0.31,0.4,0.17,2.81-1.39,5.24c-1.33,2.07-1.26,4.19-1.1,6.47c0.21,3.13-0.3,6.27-1.52,9.16c-0.3,0.72-0.63,1.48-0.97,2.27
					c-0.02-0.02-7.24,16.1-8.39,23.27c-0.44,3.53,0.12,5.36-0.39,7.05c-1.04,3.42-8.17,17.43-11.86,24.3
					c-2.72,5.07-5.29,10.38-4.65,16.36c0.06,0.64,0.07,1.16,0.05,1.62c-0.1,1.86-1.65,3.3-3.51,3.25h-0.02
					c-3.71-0.11-5.08-4.66-4.16-8.47c0.58-2.4,2.22-4.49,0.78-6.32c-1.32-1.68-4.07-1-7.45-0.08c-3.66,0.99-7.01,1.86-10.2-0.94
					c0,0.01,0,0.02,0,0.02s-5.78-5.61-15.63-2.81c-1.6,0.46-0.49-6.23,4.02-7.77c-0.75-0.18-1.53-0.26-2.36-0.19
					c-4.26,0.32-7.63,2.48-9.51,4.16c-3.35,3-4.7,6.84-5.03,9.74c-0.75,4.98,0.29,9.73,3.27,14.56c-3.39,1.67-4.71,3.72-6.55,6.41
					c-1.03,1.51-2.84,4-6.19,4c1.09,2.11,4.35,1.14,6,1.56c-4.1,3.24-5.16,8.41-3.81,12.71c0.3-0.08,2.99-4.88,9.98-7.94
					c1.21-0.44,4.4-1.74,5.61-2.19c4.35-1.6,5.8-3.62,6.77-8.48c3.25,0.65,6.63,0.35,8.91,0.09c2.27-0.26,3.32,1.6,6.1,3
					c-1.21,0.63-7.38,3.12-10.95,5.1c-6.07,3.37-12.9,9.25-15.24,16.17c-0.58,1.72-6,7-7.23,8.32c-4.46,4.77-9.78,11.82-10.13,12.37
					c-0.04-0.03-0.09-0.06-0.14-0.09c-3.36-3.52-23.73-16.86-32.01-25.27c-0.09-0.08-1.72-1.74-2-2.09
					c-0.6-0.76-0.58-1.95-0.56-3.19c0.02-0.47,0.03-0.98,0.03-1.55c0-2.23-0.9-5.1-2.27-6.01c-0.84-0.56-1.39-0.89-1.68-1.07
					c0,0-0.01-0.01-0.01-0.01l9.08-12.89c3.33-4.82,11.74-8.86,18.06-10.88c1.16-0.37,10.22-2.47,15.72-6.29
					c10.8-7.5,20.12-21.38,29.5-28.48c13.69-10.37,30.82-13.21,46.41-9.57c0.63-4.45,4.22-12.15,4.85-13.51
					c1.28-2.75,3.58-7.14,4.67-9.21c-10.25-5.68-21.71-9.43-33.82-10.52c-34.06-3.07-65.09,12.31-80.84,35.57
					c-4.92,7.26-6.38,15.53-6.28,24.13c0.39,4.76,0.33,19.55-3.38,25.22c-1.36,2.07-6.13,8.94-9.24,13.41
					c-0.16-0.1-0.83-0.27-1.24-0.32c-2.4-0.34-3.64,0.39-5.1,2.86l-1.84,4.02c-0.19,0.42-0.35,0.79-0.47,1.14
					c-0.23,0.93,0.16,2.08,0.85,3.21l-0.01,0.01c0.82,1.41,2.22,3.02,4.55,4.21c0.67,0.3,1.28,0.43,1.73,0.27
					c1.32,2.1,2.44,2.28,3.65,3.37c2.42,2.16,3.71,4.03,4.95,5.75c5.03,6.44,10.79,15.14,20.41,24.88
					c3.65,3.69,10.29,8.72,11.95,10.49c0.17,0.18,0.34,0.33,0.51,0.46c1.52,1.29,3.01,1.05,3.01,1.05s1.33,0.07,3.46-1.2
					c17.48-10.84,27.8-28.04,27.95-28.29c-0.79-0.2-2.91-1.46-3.31-1.49l0.23-0.1c0.07-0.03,1.37-0.29,2.9-0.1
					c0.05,0,0.1,0.01,0.15,0.02c6.28,0.35,15.03,3.32,17.33,4.37c1.26,0.57,2.56,1.58,3.48,2.89c1.83,2.59,3.47,5.47,5.08,8.35
					c0.94,1.68,1.15,3.77,0.5,5.73c-0.7,2.12-9.18,19.33-11.7,26.66c-0.63,1.82-0.89,2.93-1.3,3.53c0,0,0,0,0,0
					c0.04,0,0.08,0,0.13,0c1.22,0.05,11.22,0.39,22.84-2.26c8.13-1.85,16.53-4.7,26.46-10.86c17.2-10.66,25.44-21.96,32.53-34.26
					c8.12-14.07,10.03-30.3,10.26-32.93c0-0.02,0-0.04,0-0.05C730.48,111.65,731.06,105.56,730.67,99.72 M572.47,50.09
					c8.81-12.53,22.32-15.73,31.62-9.19c9.3,6.54,10.86,20.34,2.05,32.86c-8.81,12.53-23.49,17.38-32.78,10.85
					c-2.32-1.63-4.09-3.83-5.3-6.39C564.43,70.53,565.86,59.49,572.47,50.09 M566.22,81.94c4.37,7.27,11.42,8.3,11.42,8.3
					c-7.22,2.23-11.63,5.84-13.34,7.1C564.87,95.58,566.51,86.98,566.22,81.94 M712.68,130.53c-0.96,3.53-1.74,5.62-1.74,5.62
					c-3.22,9.54-7.63,21.32-18.38,32.08l-0.02-0.02c-6.81-10.26,2.3-30.99-6.45-45.98c-6.14-10.53-15.66-16.64-32.1-13.13
					c-7.31,0.75-8.16-0.83-9.42-1.89c-3.76-4.02-6.59-5.78-8.48-6.54c0.83-0.26,1.61-0.54,2.35-0.83c2.78-0.93,5.73-1.73,8.02-1.61
					c1.2,0.06,1.79,0.42,2.27,0.91c0.2,0.25,0.41,0.5,0.64,0.75c0.37,0.46,0.81,0.96,1.56,1.45v0c1.64,1.26,3.76,2.16,6.46,2.02
					c4.71-0.24,7.49-1.07,13.35,0.47c7.45,1.95,11.35,7.91,11.35,7.91c0.08-0.34-4.2-9.38-2.81-18.42
					c1.4-6.27,2.92-12.52,4.72-18.69c1.34-4.6,1.74-9.31,2.49-13.99c0.12-0.74,0.98-2.65,1.66-4.52c0.4-1.08,0.62-2.03,0.9-3.06
					c2.49,1.38,4.88,2.95,7.15,4.72c3.57,2.78,6.55,5.89,9.04,9.23c-0.01-0.01-0.03-0.02-0.04-0.03c4,5.36,6.5,11.05,8.08,16.17
					c0.01,0.04,0.03,0.08,0.04,0.12c0.07,0.23,0.14,0.46,0.2,0.68c1.25,4.31,2.02,8.72,2.4,13.09c0,0,0.01,0.01,0.03,0.01
					l-0.03,0.02c0.09,0.87,0.17,1.74,0.23,2.6c0,0.12,0,0.18,0,0.18l0.01,0.02C717,112.23,714.48,123.9,712.68,130.53"/>
				<path d="M642.69,77.43c-3.45,2.28-7.08,0.86-7.08,0.86c3.13,2.57,7.89,3.34,9.54,3.29c0.51-0.01,0.9-0.43,0.9-0.94
					c0-0.21-0.03-0.47-0.12-0.76C644.9,76.54,643.61,76.64,642.69,77.43"/>
			</g>
		</g>
	</g>
</g>
<g id="Layer_4">
</g>
<g id="Layer_5">
</g>
<g id="Layer_6">
</g>
<g id="Layer_7">
</g>
<g id="Layer_8">
</g>
<g id="Layer_9">
</g>
</svg>
